<svg width="66" height="66" viewBox="0 0 66 66" fill="none" xmlns="http://www.w3.org/2000/svg">
<path d="M32.9998 0C14.7749 0 0 14.7749 0 33.0002C0 51.2263 14.7749 66 32.9998 66C51.2267 66 66 51.2263 66 33.0002C66 14.776 51.2267 0.00157627 32.9994 0.00157627L32.9998 0ZM48.1333 47.5958C47.5422 48.5652 46.2733 48.8725 45.3039 48.2775C37.5559 43.5447 27.8021 42.4729 16.3153 45.0974C15.2084 45.3496 14.105 44.656 13.8528 43.5487C13.5994 42.4413 14.2902 41.3379 15.3999 41.0857C27.9704 38.2126 38.7531 39.4503 47.4516 44.7663C48.421 45.3614 48.7283 46.6263 48.1333 47.5958ZM52.1724 38.609C51.4276 39.8208 49.8435 40.203 48.6338 39.4582C39.7635 34.0047 26.2421 32.4256 15.7502 35.6105C14.3895 36.0215 12.9524 35.2547 12.5394 33.8963C12.1296 32.5356 12.8968 31.1012 14.2551 30.6874C26.2397 27.0509 41.1387 28.8124 51.3252 35.0722C52.535 35.817 52.9172 37.4012 52.1724 38.6094V38.609ZM52.5192 29.2522C41.8835 22.9349 24.336 22.354 14.1814 25.436C12.5508 25.9306 10.8264 25.01 10.3323 23.3794C9.83811 21.7479 10.7578 20.0247 12.3897 19.5289C24.0464 15.9902 43.4243 16.6739 55.6693 23.9433C57.1392 24.8138 57.6199 26.7081 56.749 28.1728C55.8821 29.6396 53.9827 30.1231 52.5208 29.2522H52.5192Z" fill="white"/>
</svg>
